<?xml version="1.0" encoding="UTF-8"?> <!-- Generator: Adobe Illustrator 25.0.1, SVG Export Plug-In . SVG Version: 6.00 Build 0) --> <svg xmlns="http://www.w3.org/2000/svg" xmlns:xlink="http://www.w3.org/1999/xlink" id="Слой_1" x="0px" y="0px" viewBox="0 0 1000 126.5" style="enable-background:new 0 0 1000 126.5;" xml:space="preserve"> <style type="text/css"> .st0{fill-rule:evenodd;clip-rule:evenodd;fill:#FFFFFF;} .st1{fill:#FFFFFF;} </style> <g> <path class="st0" d="M556.2,59.4c-17.3-22.3-3.4-57.3,28-57.7l63.9-0.2l-5.7,15.6l-33.8,0.1c-6.7,0-11.4,0-17.8,0 c-8.6,0.1-13.4,10.7-8.5,17.1c8,12.3,21.6,20.8,30.1,33.4c18.5,24.8,0,57.2-27.6,57.4l-70.3,0.2l5.7-15.6l38.2-0.1 c6.6,0,10.8,0,17.3,0c8.5-0.1,13.2-10.6,8.8-16.9C577.4,81,565,70,556.2,59.4L556.2,59.4z M491.5,125.3c-12.3,0-22.6,0.1-34.9,0.1 L501.8,1.9l34.9-0.1L491.5,125.3L491.5,125.3z M663.3,124.9c-12.3,0-22.6,0.1-34.9,0.1L673.6,1.5l34.9-0.1L663.3,124.9L663.3,124.9 z M715.9,38.7C728,13,753.6-0.7,777.3,0l9.2,0l0,0l12.5,0c18.3,0.8,29.4,15.9,30.4,28.3c0.2,3,0.2,5.8-0.2,8.1 c-0.3,1.4-0.6,2.8-1,4.2c-3.8,15.9-9.5,32-17,46.5c-12.1,25.7-37.7,39.4-61.4,38.7l-9.2,0h-0.1l-12.3,0 c-18.2-0.8-29.4-15.9-30.3-28.3c-0.2-2.9-0.2-5.8,0.2-8.1c0.3-1.4,0.6-2.8,0.9-4.2C702.6,69.4,708.3,53.3,715.9,38.7L715.9,38.7z M781.9,12.8L781.9,12.8c-12.9,0.4-23.7,7.8-28.3,19.9l-22.9,62.9c-0.6,1.5-0.9,3.1-0.8,4.8c0,0,0,0,0,0c0,6.7,5.2,12.2,11.8,12.7 l3.4,0c12.9-0.4,23.7-7.8,28.3-19.9l22.9-62.9c0.6-1.5,0.9-3.1,0.8-4.8c0,0,0,0,0,0c0-6.7-5.3-12.2-11.8-12.7L781.9,12.8 L781.9,12.8z M410.5,86.9L467.1,2l20.5-0.1l-79,118.4l0,0c-2,3.1-5.5,5.1-9.4,5.2h-0.7c-0.1,0-0.3,0-0.4,0c0,0,0.1,0,0.1,0H397 l-12.2,0l-6,0l-10-123.3l34.9-0.1L410.5,86.9L410.5,86.9z M866.1,40.9l-0.1-1.5l-31.3,85.1l-18,0L862.1,1l22.8-0.1l33.1,83.3 l30.7-83.4l18,0l-45.4,123.5l-16.5,0c-4.6-0.2-8.5-3.1-10.2-7.1L866.1,40.9L866.1,40.9z"></path> <path class="st0" d="M179.3,126.1c-12.4,0-24.8,0.1-37.1,0.1L187.4,2.6h1.1l35-0.1h1.1L179.3,126.1L179.3,126.1z M64.8,50.5 l44.2-0.1l17.4-47.6l37.1-0.1l-42.4,116v0c0,0,0,0.1-0.1,0.1c-1.7,4.3-5.9,7.4-10.8,7.4c-9.7,0-19.3,0.1-29,0.1l21.6-59.1 l-44.2,0.1l-21.6,59.1c-12.3,0-24.7,0.1-37.1,0.1L45.2,3l37.1-0.1L64.8,50.5L64.8,50.5z M269.4,48.9l60.3-46.6l27.7-0.1l-61.6,47.6 l39.3,75.8l-31.5,0.1c0.1,0,0.2,0,0.3-0.1c-4.9,0.3-9.3-2.4-11.3-6.6c0,0,0-0.1-0.1-0.1l0,0.1l-24.7-47.6l-9.2,7.1l-17.3,47.4 c-12.4,0-24.7,0.1-37.1,0.1L249.3,2.5l37.1-0.1L269.4,48.9L269.4,48.9z"></path> <g> <path class="st1" d="M980.8,20.8l0-14.8l6.6,0c1.3,0,2.3,0.1,3,0.4c0.7,0.3,1.2,0.7,1.7,1.4c0.4,0.7,0.6,1.4,0.6,2.2 c0,1.1-0.3,1.9-1,2.7s-1.7,1.2-3.1,1.4c0.5,0.2,0.9,0.5,1.2,0.7c0.6,0.5,1.1,1.2,1.6,2l2.6,4l-2.5,0l-2-3.1 c-0.6-0.9-1.1-1.6-1.4-2s-0.7-0.8-1-1c-0.3-0.2-0.6-0.3-0.9-0.4c-0.2-0.1-0.6-0.1-1.1-0.1l-2.3,0l0,6.6L980.8,20.8z M982.7,12.5 l4.2,0c0.9,0,1.6-0.1,2.1-0.3c0.5-0.2,0.9-0.5,1.2-0.9c0.3-0.4,0.4-0.8,0.4-1.3c0-0.7-0.3-1.3-0.8-1.7c-0.5-0.4-1.3-0.7-2.4-0.7 l-4.7,0L982.7,12.5z"></path> </g> <g> <path class="st1" d="M986.9,26.7c-7.2,0-13.2-5.9-13.2-13.1c0-7.2,5.9-13.2,13.1-13.2c7.2,0,13.2,5.9,13.2,13.1 C1000,20.7,994.1,26.7,986.9,26.7z M986.8,1.9c-6.4,0-11.7,5.3-11.7,11.7c0,6.4,5.3,11.7,11.7,11.6c6.4,0,11.7-5.3,11.6-11.7 C998.5,7.1,993.3,1.8,986.8,1.9z"></path> </g> </g> </svg> 