<?xml version="1.0" encoding="UTF-8"?> <!-- Generator: Adobe Illustrator 24.3.0, SVG Export Plug-In . SVG Version: 6.00 Build 0) --> <svg xmlns="http://www.w3.org/2000/svg" xmlns:xlink="http://www.w3.org/1999/xlink" id="Capa_1" x="0px" y="0px" viewBox="0 0 612 612" style="enable-background:new 0 0 612 612;" xml:space="preserve"> <style type="text/css"> .st0{fill:#9D4889;} </style> <g> <g id="_x32__26_"> <g> <path class="st0" d="M401.6,325.1H210.4c-10.6,0-19.1,8.6-19.1,19.1s8.6,19.1,19.1,19.1h191.2c10.6,0,19.1-8.6,19.1-19.1 S412.2,325.1,401.6,325.1z M439.9,210.4H172.1c-10.6,0-19.1,8.6-19.1,19.1s8.6,19.1,19.1,19.1h267.8c10.6,0,19.1-8.6,19.1-19.1 S450.4,210.4,439.9,210.4z M306,0C137,0,0,119.9,0,267.8c0,84.5,44.8,159.8,114.8,208.8V612l134-81.3c18.6,3.1,37.6,4.8,57.2,4.8 c169,0,306-119.9,306-267.8S475,0,306,0z M306,497.2c-22.3,0-43.9-2.6-64.6-7l-90,54.1l1.2-88.7 c-69-41.5-114.3-110.1-114.3-187.9C38.2,141,158.1,38.2,306,38.2S573.8,141,573.8,267.8S453.9,497.2,306,497.2z"></path> </g> </g> </g> </svg> 