<?xml version="1.0" encoding="UTF-8"?> <!-- Generator: Adobe Illustrator 24.3.0, SVG Export Plug-In . SVG Version: 6.00 Build 0) --> <svg xmlns="http://www.w3.org/2000/svg" xmlns:xlink="http://www.w3.org/1999/xlink" id="圖層_1" x="0px" y="0px" viewBox="0 0 259.9 55.8" style="enable-background:new 0 0 259.9 55.8;" xml:space="preserve"> <style type="text/css"> .st0{fill:#FFFFFF;} </style> <g> <path class="st0" d="M44.5,28.7c3.6,3.8,7.4,5.8,11.5,5.8c0.9,0,1.7-0.1,2.5-0.3s1.4-0.5,2-0.8c0.6-0.4,1-0.9,1.3-1.4 c0.3-0.6,0.5-1.3,0.5-2.1c0-0.6-0.1-1.1-0.4-1.6c-0.3-0.5-0.6-0.9-1.1-1.2c-0.4-0.3-0.9-0.7-1.5-0.9c-0.5-0.3-1.1-0.5-1.6-0.7 c-1-0.4-2-0.8-3-1.1c-1-0.3-2-0.7-3-1.1c-0.6-0.2-1.2-0.4-2-0.7c-0.8-0.3-1.6-0.7-2.5-1.1c-0.8-0.4-1.7-0.9-2.5-1.5 s-1.6-1.3-2.2-2.1C42,17,41.4,16,41,15s-0.6-2.2-0.6-3.6c0-1.7,0.4-3.2,1.3-4.4c0.8-1.3,2-2.3,3.4-3.2s3-1.5,4.8-1.9 s3.6-0.7,5.5-0.7c3,0,5.8,0.3,8.2,1c2.5,0.7,4.7,1.8,6.8,3.4L66.1,12c-0.8-0.7-1.5-1.4-2.2-1.9c-0.7-0.6-1.5-1.1-2.3-1.5 S59.9,7.9,59,7.7c-0.9-0.2-2-0.3-3.2-0.3c-1,0-1.9,0.1-2.6,0.4c-0.7,0.2-1.3,0.6-1.8,1s-0.8,0.9-1,1.4s-0.3,1.1-0.3,1.6 c0,0.6,0.2,1.2,0.5,1.6c0.3,0.5,0.7,0.9,1.2,1.2s1.1,0.6,1.7,0.9c0.6,0.2,1.3,0.5,1.9,0.7c1,0.4,2.1,0.7,3.1,1s2.1,0.7,3.1,1 c0.5,0.2,1.1,0.4,1.9,0.7c0.7,0.3,1.5,0.6,2.3,1s1.5,0.9,2.3,1.5s1.5,1.3,2.1,2.1c0.6,0.8,1.1,1.7,1.5,2.8c0.4,1.1,0.6,2.3,0.6,3.7 c0,1.8-0.4,3.3-1.3,4.7c-0.9,1.4-2.1,2.5-3.6,3.4s-3.1,1.6-5,2.1s-3.8,0.7-5.8,0.7c-1.7,0-3.4-0.1-5-0.3s-3-0.5-4.4-0.9 s-2.7-1-4-1.8s-2.4-1.7-3.6-2.9L44.5,28.7z"></path> <path class="st0" d="M79.6,1.8c0.1,0.4,0.3,0.9,0.5,1.6s0.3,1.3,0.4,1.9c0.6-0.5,1.4-1,2.2-1.5c0.9-0.5,1.8-0.9,2.9-1.3 c1-0.4,2.1-0.7,3.3-0.9c1.2-0.2,2.3-0.3,3.5-0.3c2.2,0,4.1,0.4,5.8,1.1c1.7,0.7,3,1.7,3.9,2.9c1.1-0.7,2.2-1.3,3.2-1.8 s2.1-0.9,3.1-1.2s2.1-0.5,3.2-0.7c1.1-0.1,2.3-0.2,3.5-0.2c2.1,0,3.9,0.3,5.4,0.9s2.7,1.4,3.7,2.5c1,1,1.7,2.3,2.1,3.7 c0.5,1.4,0.7,2.9,0.7,4.6v27h-9.5V15.3c0-1.4-0.2-2.6-0.4-3.5c-0.3-0.9-0.7-1.7-1.3-2.2c-0.6-0.6-1.3-0.9-2.1-1.2 c-0.8-0.2-1.8-0.3-2.8-0.3c-1.2,0-2.3,0.1-3.4,0.4c-1.1,0.2-2.3,0.6-3.6,1.2c0.2,0.5,0.3,1.2,0.4,1.8c0.1,0.7,0.1,1.5,0.1,2.4v25.9 H95V15.3c0-1.5-0.1-2.6-0.4-3.6c-0.3-0.9-0.7-1.7-1.3-2.2C92.7,9,92,8.6,91.2,8.4c-0.8-0.2-1.8-0.3-2.9-0.3c-1.5,0-2.7,0.2-3.9,0.5 c-1.1,0.3-2.1,0.8-3.2,1.3c0,0-0.1,0-0.1,0.1v29.7h-9.5V6.2c0-0.8,0-1.6,0-2.4s-0.1-1.5-0.2-2C71.4,1.8,79.6,1.8,79.6,1.8z"></path> <path class="st0" d="M151.3,19.9c-2.8,0.1-5.1,0.4-6.9,0.9c-1.8,0.5-3.3,1.1-4.3,1.8c-1.1,0.8-1.8,1.7-2.2,2.7s-0.6,2.1-0.6,3.4 c0,1,0.1,1.9,0.4,2.6c0.2,0.7,0.6,1.2,1,1.7c0.4,0.4,1,0.7,1.6,0.9s1.3,0.3,2.1,0.3c0.7,0,1.4,0,2.1-0.1c0.7-0.1,1.5-0.2,2.2-0.4 c0.8-0.2,1.5-0.5,2.3-0.8c0.8-0.4,1.6-0.8,2.4-1.3V19.9H151.3z M128.2,7c2.1-1.8,4.5-3.2,7.4-4.2c2.8-1,5.8-1.5,9-1.5 c2.1,0,4.1,0.2,6.1,0.7s3.7,1.2,5.2,2.1c1.5,1,2.7,2.2,3.6,3.7c0.9,1.5,1.3,3.3,1.3,5.4v16.9c0,0.8,0.1,1.5,0.2,2 c0.1,0.6,0.3,1,0.5,1.3s0.5,0.5,0.9,0.7c0.4,0.1,0.8,0.2,1.3,0.2c0.2,0,0.6,0,1.1-0.1s3.4-0.8,3.9-0.9l3.2-0.5 c-0.6,0.4-5.7,5.8-6.3,6.1s-1.3,0.6-2,0.8s-1.4,0.4-2.3,0.5c-0.8,0.1-1.7,0.2-2.7,0.2c-1.8,0-3.4-0.4-4.6-1.2c-1.2-0.8-2-2-2.4-3.5 c-1,0.9-2.1,1.7-3.2,2.3c-1.1,0.6-2.2,1.1-3.3,1.4c-1.1,0.3-2.2,0.6-3.3,0.7c-1.1,0.1-2.2,0.2-3.2,0.2c-1.8,0-3.4-0.2-4.8-0.7 c-1.4-0.4-2.6-1.1-3.6-2s-1.8-2-2.3-3.3s-0.8-2.8-0.8-4.6c0-1.9,0.3-3.6,0.9-5.1s1.5-2.7,2.6-3.8c1.1-1,2.4-1.9,3.9-2.6 s3.2-1.2,4.9-1.6c1.8-0.4,3.7-0.7,5.7-0.8c2-0.2,4-0.2,6.1-0.2v-1.4c0-1.2-0.2-2.3-0.5-3.2c-0.4-0.9-0.9-1.6-1.5-2.2 c-0.6-0.6-1.4-1-2.3-1.3c-0.9-0.3-1.9-0.4-3-0.4c-0.9,0-1.8,0.1-2.6,0.2c-0.8,0.2-1.7,0.4-2.5,0.8s-1.7,0.9-2.6,1.5 c-0.9,0.6-1.9,1.5-3,2.5L128.2,7z"></path> <path class="st0" d="M26.7,19.9c-3,0.1-5.5,0.4-7.4,0.9s-3.5,1.1-4.6,1.8c-1.1,0.8-1.9,1.7-2.3,2.7c-0.4,1-0.7,2.1-0.7,3.4 c0,1,0.1,1.9,0.4,2.6c0.3,0.7,0.6,1.2,1.1,1.7c0.5,0.4,1,0.7,1.7,0.9s1.4,0.3,2.2,0.3c0.7,0,1.5,0,2.2-0.1c0.8-0.1,1.5-0.2,2.3-0.4 s1.6-0.5,2.4-0.8c0.8-0.4,1.7-0.8,2.5-1.3V19.9H26.7z M2.2,7C4.4,5.2,7,3.8,10,2.7c3-1,6.2-1.5,9.5-1.5c2.2,0,4.4,0.2,6.5,0.7 s3.9,1.2,5.5,2.1c1.6,1,2.9,2.2,3.8,3.7c1,1.5,1.4,3.3,1.4,5.4V30c0,0.8,0,1.5,0.1,2c0.1,0.6,0.3,1,0.5,1.3s0.6,0.5,0.9,0.7 c0.4,0.1,0.9,0.2,1.4,0.2c0.2,0,0.6,0,1.2-0.1c0.6-0.1,3.6-0.8,4.1-0.9l3.9,2.2c-0.6,0.4-6.6,3.1-7.2,3.4c-0.6,0.3-1.3,0.6-2.1,0.8 c-0.7,0.2-1.5,0.4-2.4,0.5s-1.8,0.2-2.8,0.2c-1.9,0-3.6-0.4-4.9-1.2s-2.1-2-2.5-3.5c-1.1,0.9-2.2,1.7-3.4,2.3 c-1.2,0.6-2.3,1.1-3.5,1.4c-1.2,0.3-2.3,0.6-3.5,0.7c-1.2,0.1-2.3,0.2-3.4,0.2c-1.9,0-3.6-0.2-5.1-0.7c-1.5-0.4-2.8-1.1-3.8-2 c-1.1-0.9-1.9-2-2.4-3.3c-0.6-1.3-0.9-2.8-0.9-4.6c0-1.9,0.3-3.6,1-5.1s1.6-2.7,2.7-3.8c1.2-1,2.5-1.9,4.1-2.6s3.4-1.2,5.2-1.6 c1.9-0.4,3.9-0.7,6-0.8c2.1-0.2,4.3-0.2,6.5-0.2v-1.4c0-1.2-0.2-2.3-0.6-3.2s-0.9-1.6-1.6-2.2c-0.7-0.6-1.5-1-2.5-1.3 S19.7,7,18.5,7c-1,0-1.9,0.1-2.8,0.2C14.8,7.4,13.9,7.6,13,8s-1.8,0.9-2.8,1.5S8.2,11,7,12L2.2,7z"></path> <path class="st0" d="M198.4,5.3c1,0.1,1.7,0.3,2.2,0.4c-0.1-0.8-0.2-1.5-0.2-2.1s0.1-1.2,0.2-2c-0.5,0-1.7,0-3.7,0s-4.2,0-6.5,0 l-8-0.2l-2.5-0.1c-5.2,0-9.3,1-12.3,3s-4.5,4.7-4.5,8c0,3.2,1.5,5.7,4.5,7.6c1.7,1,3.8,1.8,6.2,2.3c-1.4,0.3-2.7,0.8-3.9,1.4 c-2.8,1.4-4.1,3.1-4.1,5.1c0,1.8,0.9,3.3,2.7,4.5c0.6,0.4,1.2,0.7,1.8,1c-2.6,0.5-4.5,1.4-5.8,2.7c-0.9,1-1.5,2.2-1.8,3.6h8v-0.1 c0-1,0.3-2.1,0.9-3.1c0.6-1,1.3-1.8,2.1-2.2h1.2h7.6c3,0,5.2,0.4,6.6,1.2c1.3,0.8,2,2.2,2,4c0,2.2-0.9,3.9-2.7,5.2 s-4.2,1.9-7.4,1.9c-1.6,0-3.1-0.1-4.4-0.4v3.6c1.2,0.1,2.4,0.1,3.7,0.1c5.6,0,10.4-1.3,14.3-3.9c3.9-2.6,5.8-5.7,5.8-9.4 c0-3.3-1.2-5.7-3.7-7.3c-2.5-1.6-6.3-2.4-11.4-2.4h-6.1c-1.3,0-2.4-0.3-3.3-0.9c-0.9-0.6-1.3-1.3-1.3-2.1c0-0.8,0.4-1.3,1.1-1.6 c0.7-0.3,2.1-0.5,4-0.5c5.2,0,9.3-1,12.3-2.9s4.6-4.6,4.6-7.9c0-2.7-1.4-5.1-4.2-7.1l2.9,0.1C196.4,5.1,197.4,5.2,198.4,5.3 M184.3,17.7c-1,1.3-2.5,2-4.5,2l0,0c-1.9,0-3.3-0.6-4.3-1.8c-1-1.2-1.4-3-1.4-5.4c0-2.6,0.5-4.5,1.5-5.8s2.5-2,4.5-2 c1.9,0,3.3,0.6,4.3,1.8s1.4,3.1,1.4,5.5S185.3,16.4,184.3,17.7"></path> <path class="st0" d="M220.9,39.7c-0.5,0.6-0.9,1-1.4,1.4c-0.5,0.3-1,0.6-1.6,0.8s-1.1,0.3-1.7,0.4c-0.6,0.1-1.2,0.1-1.8,0.1 c-1.4,0-2.7-0.2-3.7-0.6c-1-0.4-1.8-1-2.5-1.7c-0.6-0.7-1.1-1.5-1.4-2.4c-0.3-0.9-0.4-1.8-0.4-2.7c0-1.1,0.2-2.1,0.5-3 c0.4-0.9,0.9-1.7,1.6-2.4c0.7-0.7,1.6-1.2,2.6-1.6s2.3-0.6,3.6-0.6c0.5,0,1.1,0,1.6,0.1c0.5,0,1,0.1,1.5,0.3 c0.5,0.1,0.9,0.3,1.4,0.5c0.4,0.2,0.9,0.5,1.2,0.9l-2.4,2.2c-0.3-0.3-0.6-0.5-0.8-0.7c-0.3-0.2-0.5-0.3-0.8-0.5 c-0.3-0.1-0.5-0.2-0.8-0.3c-0.3-0.1-0.6-0.1-1-0.1c-0.7,0-1.3,0.1-1.8,0.4s-0.9,0.7-1.3,1.1c-0.3,0.5-0.6,1-0.7,1.5 c-0.2,0.6-0.2,1.1-0.2,1.7c0,0.7,0.1,1.4,0.2,2c0.2,0.6,0.4,1.2,0.8,1.7c0.3,0.5,0.8,0.8,1.3,1.1s1.1,0.4,1.9,0.4 c0.3,0,0.7,0,1-0.1s0.6-0.1,0.9-0.3c0.3-0.1,0.6-0.3,0.9-0.6c0.3-0.3,0.6-0.6,0.9-1L220.9,39.7z"></path> <path class="st0" d="M227.8,40.1c0.7,0,1.2-0.2,1.7-0.5s0.9-0.7,1.2-1.3c0.3-0.5,0.5-1.1,0.7-1.8s0.2-1.3,0.2-2 c0-0.6-0.1-1.2-0.2-1.8c-0.1-0.6-0.4-1.1-0.7-1.5s-0.7-0.8-1.2-1c-0.5-0.3-1.1-0.4-1.8-0.4c-0.6,0-1.2,0.1-1.7,0.4 s-0.9,0.6-1.2,1.1c-0.3,0.4-0.6,1-0.7,1.6c-0.2,0.6-0.3,1.3-0.3,2c0,0.6,0.1,1.2,0.2,1.8c0.1,0.6,0.4,1.2,0.7,1.7s0.7,0.9,1.2,1.2 C226.6,39.9,227.2,40.1,227.8,40.1 M228,42.5c-1.3,0-2.5-0.2-3.5-0.5c-1-0.4-1.9-0.9-2.6-1.6c-0.7-0.7-1.2-1.5-1.6-2.4 c-0.4-0.9-0.5-2-0.5-3.2c0-1,0.2-1.9,0.5-2.8c0.3-0.9,0.8-1.7,1.5-2.3c0.7-0.7,1.5-1.2,2.5-1.6s2.2-0.6,3.6-0.6 c1.4,0,2.5,0.2,3.5,0.6s1.8,0.9,2.4,1.6c0.6,0.7,1.1,1.5,1.4,2.4c0.3,0.9,0.5,1.9,0.5,3c0,1-0.2,2-0.5,2.9 c-0.4,0.9-0.9,1.7-1.5,2.4c-0.7,0.7-1.5,1.2-2.5,1.6C230.3,42.3,229.2,42.5,228,42.5"></path> <path class="st0" d="M239.3,27.7c0.1,0.1,0.1,0.3,0.2,0.6c0.1,0.3,0.1,0.5,0.2,0.7c0.2-0.2,0.6-0.4,0.9-0.6 c0.4-0.2,0.8-0.3,1.2-0.5c0.4-0.1,0.9-0.3,1.4-0.4s0.9-0.1,1.4-0.1c0.9,0,1.7,0.1,2.4,0.4s1.2,0.6,1.6,1.1c0.5-0.3,0.9-0.5,1.3-0.7 c0.4-0.2,0.9-0.4,1.3-0.5c0.4-0.1,0.9-0.2,1.3-0.3c0.5-0.1,0.9-0.1,1.4-0.1c0.9,0,1.6,0.1,2.2,0.3c0.6,0.2,1.1,0.5,1.5,0.9 s0.7,0.9,0.9,1.4c0.2,0.5,0.3,1.1,0.3,1.7v10.3h-3.9v-9.3c0-0.5-0.1-1-0.2-1.3c-0.1-0.4-0.3-0.6-0.5-0.8c-0.2-0.2-0.5-0.4-0.9-0.4 c-0.3-0.1-0.7-0.1-1.2-0.1s-0.9,0.1-1.4,0.1c-0.5,0.1-1,0.2-1.5,0.5c0.1,0.2,0.1,0.4,0.2,0.7c0,0.3,0.1,0.6,0.1,0.9V42h-3.9v-9.3 c0-0.6-0.1-1-0.2-1.4c-0.1-0.4-0.3-0.6-0.5-0.8c-0.2-0.2-0.5-0.3-0.9-0.4c-0.3-0.1-0.7-0.1-1.2-0.1c-0.6,0-1.1,0.1-1.6,0.2 c-0.4,0.1-0.9,0.3-1.3,0.5V42H236V29.4c0-0.3,0-0.6,0-0.9s0-0.6-0.1-0.8H239.3z"></path> <rect x="203.4" y="39.5" class="st0" width="2.6" height="2.6"></rect> <g> <path class="st0" d="M72.8,49.8c0.1,0.4,0.2,0.6,0.4,0.8c0.3,0.3,0.9,0.5,1.7,0.5c0.5,0,0.8,0,1.1-0.1c0.6-0.2,0.8-0.5,0.8-0.9 c0-0.3-0.1-0.5-0.4-0.6s-0.7-0.3-1.3-0.4l-1-0.2c-1-0.2-1.7-0.4-2-0.6c-0.6-0.4-0.9-0.9-0.9-1.7c0-0.7,0.3-1.3,0.9-1.7 c0.6-0.5,1.5-0.7,2.7-0.7c1,0,1.8,0.2,2.5,0.7c0.7,0.4,1.1,1.1,1.1,1.9h-1.9c0-0.5-0.3-0.8-0.7-1c-0.3-0.1-0.7-0.2-1.2-0.2 s-0.9,0.1-1.2,0.3c-0.3,0.2-0.5,0.4-0.5,0.7s0.2,0.5,0.5,0.6c0.2,0.1,0.6,0.2,1.2,0.3l1.6,0.3c0.7,0.1,1.3,0.3,1.6,0.6 c0.6,0.4,0.8,0.9,0.8,1.6c0,0.7-0.3,1.3-1,1.8s-1.6,0.7-2.8,0.7c-1.2,0-2.2-0.2-2.9-0.7c-0.7-0.5-1.1-1.1-1.1-1.9L72.8,49.8 L72.8,49.8z"></path> <path class="st0" d="M85.6,46.6c0.5,0.2,0.9,0.5,1.2,0.9c0.3,0.3,0.5,0.7,0.5,1.2c0,0.3,0.1,0.6,0.1,1.1h-5c0,0.6,0.3,1,0.7,1.2 c0.3,0.1,0.6,0.2,1,0.2s0.7-0.1,1-0.3c0.1-0.1,0.3-0.2,0.4-0.4h1.8c0,0.3-0.3,0.7-0.7,1c-0.6,0.6-1.5,0.8-2.6,0.8 c-0.9,0-1.7-0.2-2.4-0.7c-0.7-0.5-1-1.2-1-2.3c0-1,0.3-1.8,0.9-2.3s1.4-0.8,2.5-0.8C84.6,46.3,85.1,46.4,85.6,46.6z M82.9,47.9 c-0.3,0.2-0.4,0.5-0.5,0.9h3.1c0-0.4-0.2-0.7-0.5-0.9s-0.6-0.3-1.1-0.3C83.5,47.5,83.2,47.7,82.9,47.9z"></path> <path class="st0" d="M93.7,48.5c0-0.2-0.1-0.4-0.3-0.6c-0.2-0.2-0.5-0.3-0.9-0.3c-0.6,0-1,0.3-1.2,0.8c-0.1,0.3-0.2,0.6-0.2,1.1 c0,0.4,0.1,0.8,0.2,1c0.2,0.5,0.6,0.7,1.2,0.7c0.4,0,0.7-0.1,0.9-0.3c0.2-0.2,0.3-0.4,0.3-0.7h1.8c0,0.5-0.2,0.9-0.6,1.3 c-0.6,0.7-1.4,1-2.5,1s-1.9-0.3-2.4-0.8c-0.5-0.6-0.8-1.3-0.8-2.1c0-1,0.3-1.8,0.9-2.3c0.6-0.6,1.4-0.8,2.4-0.8 c0.9,0,1.6,0.2,2.1,0.5s0.9,0.9,1,1.7h-1.9V48.5z"></path> <path class="st0" d="M99.9,46.5V50c0,0.3,0,0.6,0.1,0.7c0.2,0.3,0.5,0.4,1,0.4c0.6,0,1-0.2,1.3-0.6c0.1-0.2,0.2-0.5,0.2-0.9v-3.1 h1.8v5.8h-1.7v-0.8c0,0-0.1,0.1-0.1,0.2c-0.1,0.1-0.1,0.2-0.2,0.2c-0.3,0.2-0.6,0.4-0.8,0.4c-0.3,0.1-0.6,0.1-0.9,0.1 c-1,0-1.7-0.3-2-0.9c-0.2-0.3-0.3-0.8-0.3-1.5v-3.5C98.3,46.5,99.9,46.5,99.9,46.5z"></path> <path class="st0" d="M111.1,46.3c0,0,0.1,0,0.2,0v1.5c-0.1,0-0.2,0-0.3,0c-0.1,0-0.2,0-0.2,0c-0.7,0-1.2,0.2-1.5,0.6 c-0.1,0.2-0.2,0.6-0.2,1v2.8h-1.8v-5.8h1.7v1c0.3-0.4,0.5-0.6,0.7-0.8C110,46.4,110.4,46.3,111.1,46.3 C111,46.3,111,46.3,111.1,46.3z"></path> <path class="st0" d="M115.4,45.8h-1.8v-1.4h1.8V45.8z M113.6,46.5h1.8v5.8h-1.8V46.5z"></path> <path class="st0" d="M117.7,47.6v-1.1h1v-1.6h1.8v1.6h1.1v1.1h-1.1v3.1c0,0.2,0,0.4,0.1,0.4c0.1,0.1,0.3,0.1,0.7,0.1 c0.1,0,0.1,0,0.2,0s0.1,0,0.2,0v1.1h-0.9c-0.8,0-1.4-0.1-1.7-0.4c-0.2-0.2-0.3-0.4-0.3-0.8v-3.6h-1.1V47.6z"></path> <path class="st0" d="M124.3,53.3h0.2c0.2,0,0.3,0,0.5,0s0.3-0.1,0.4-0.1c0.1-0.1,0.2-0.2,0.3-0.4c0.1-0.2,0.1-0.3,0.1-0.3l-2.5-6 h2l1.5,4.3l1.4-4.3h1.9l-2.4,5.7c-0.5,1.1-0.8,1.8-1.1,2c-0.3,0.3-0.8,0.4-1.6,0.4c-0.2,0-0.3,0-0.4,0s-0.2,0-0.4,0v-1.3H124.3z"></path> <path class="st0" d="M137.6,49c0.3-0.3,0.7-0.7,1.4-1l0.2-0.1c-0.3-0.3-0.5-0.5-0.6-0.8s-0.2-0.5-0.2-0.8c0-0.6,0.2-1,0.7-1.3 s1.1-0.5,1.8-0.5s1.2,0.2,1.7,0.5c0.4,0.3,0.7,0.7,0.7,1.3c0,0.5-0.1,0.8-0.4,1.1c-0.3,0.3-0.6,0.6-1.2,0.8l1.3,1.4 c0.2-0.2,0.3-0.4,0.4-0.6c0.1-0.2,0.1-0.4,0.1-0.7h1.6c0,0.5-0.2,1-0.4,1.4c-0.1,0.3-0.4,0.6-0.7,0.9l1.7,1.7h-2.2l-0.6-0.7 c-0.3,0.2-0.6,0.4-0.9,0.5c-0.5,0.2-1,0.3-1.7,0.3c-1,0-1.7-0.2-2.2-0.7s-0.8-1-0.8-1.6C137.2,49.7,137.4,49.3,137.6,49z M139.4,50.8c0.3,0.2,0.6,0.3,1,0.3c0.3,0,0.6-0.1,0.8-0.2c0.3-0.1,0.5-0.2,0.7-0.4l-1.7-1.8c-0.5,0.3-0.8,0.5-0.9,0.7 c-0.1,0.2-0.2,0.4-0.2,0.6C139,50.4,139.1,50.6,139.4,50.8z M140.2,46.6c0.1,0.1,0.2,0.3,0.5,0.5c0.3-0.1,0.4-0.3,0.6-0.4 c0.2-0.2,0.3-0.4,0.3-0.6c0-0.2-0.1-0.3-0.2-0.4c-0.1-0.1-0.3-0.2-0.6-0.2c-0.2,0-0.3,0-0.5,0.1s-0.3,0.3-0.3,0.5 C140,46.3,140.1,46.5,140.2,46.6z"></path> <path class="st0" d="M154.8,52.2h-1.9v-7.8h1.9V52.2z"></path> <path class="st0" d="M163.4,51.5c-0.6,0.6-1.5,0.9-2.6,0.9c-1.2,0-2.1-0.3-2.6-0.9c-0.6-0.6-0.9-1.3-0.9-2.2 c0-0.8,0.3-1.6,0.9-2.2c0.6-0.6,1.5-0.9,2.6-0.9c1.2,0,2.1,0.3,2.6,0.9c0.6,0.6,0.9,1.3,0.9,2.2C164.3,50.2,164,50.9,163.4,51.5z M162,50.7c0.3-0.3,0.4-0.8,0.4-1.3c0-0.6-0.1-1-0.4-1.3c-0.3-0.3-0.7-0.5-1.2-0.5s-0.9,0.2-1.2,0.5s-0.4,0.8-0.4,1.3 c0,0.6,0.1,1,0.4,1.3c0.3,0.3,0.7,0.5,1.2,0.5S161.7,51,162,50.7z"></path> <path class="st0" d="M173.8,44.4v1.4H171v6.4h-2v-6.4h-2.8v-1.4H173.8z"></path> </g> </g> </svg> 