<?xml version="1.0" encoding="UTF-8"?> <svg xmlns="http://www.w3.org/2000/svg" viewBox="0 0 287.73 291.59"> <defs> <style>.cls-1{fill:#fff;}</style> </defs> <g id="Слой_2" data-name="Слой 2"> <g id="Слой_1-2" data-name="Слой 1"> <path class="cls-1" d="M200.88,11.26A7.85,7.85,0,1,1,197.2.78a7.84,7.84,0,0,1,3.68,10.48"></path> <path class="cls-1" d="M174.43,2.3C109.15-8.21,43.55,26.11,14.88,85.74A150.09,150.09,0,0,0,1,168l2.41-.27A147.73,147.73,0,0,1,17.07,86.8C45.27,28.12,109.82-5.64,174,4.7Z"></path> <path class="cls-1" d="M225.13,51.41A129.38,129.38,0,1,0,269.22,229,129.53,129.53,0,0,0,225.13,51.41M116.7,231.49a80.83,80.83,0,1,1,110.94-27.55A80.93,80.93,0,0,1,116.7,231.49"></path> </g> </g> </svg> 