<?xml version="1.0" encoding="UTF-8"?> <!-- Generator: Adobe Illustrator 24.3.0, SVG Export Plug-In . SVG Version: 6.00 Build 0) --> <svg xmlns="http://www.w3.org/2000/svg" xmlns:xlink="http://www.w3.org/1999/xlink" id="Capa_1" x="0px" y="0px" viewBox="0 0 474.8 474.8" style="enable-background:new 0 0 474.8 474.8;" xml:space="preserve"> <style type="text/css"> .st0{fill:#FFFFFF;} </style> <g> <g> <path class="st0" d="M235,92l42.1-33.5l-50,19.8c-74.9,29.6-85,26.9-135-36.2L58.6,0l19.8,50c29.6,74.9,26.8,85-36.2,135L0,218.6 l50-19.8c74.9-29.6,85-26.9,135,36.2l33.5,42.1l-19.8-50C169.2,152.2,171.9,142.1,235,92z M169.6,192.4 c-18.7-19.2-34.2-27.8-54.3-27.8c-10.4,0.3-20.7,2-30.6,5c27.8-27.1,33.3-47.5,22.8-84.9c27.1,27.8,47.5,33.3,84.9,22.8 C164.5,134.6,159.1,155,169.6,192.4z"></path> </g> </g> <g> <g> <path class="st0" d="M232.7,343.8l42.1-33.5l-50,19.8c-45.8,18.1-50.3,16.9-81-21.7l-33.5-42.1l19.8,50 c18.1,45.8,16.9,50.3-21.7,81l-42.1,33.5l50-19.8c45.8-18.1,50.3-16.9,81,21.7l33.5,42.1l-19.8-50 C192.9,379,194.1,374.4,232.7,343.8z M184.8,395.3c-7.8-7.3-18-11.4-28.6-11.5c-3.5,0-7,0.4-10.4,1c9.8-10.4,13.7-25.1,10.5-39 c10.4,9.8,25.1,13.7,39,10.5C185.5,366.7,181.6,381.3,184.8,395.3z"></path> </g> </g> <g> <g> <path class="st0" d="M432.7,167.8l42.1-33.5l-50,19.8c-45.8,18.1-50.3,16.9-81-21.7l-33.5-42.1l19.8,50 c18.1,45.8,16.9,50.3-21.7,81l-42.1,33.5l50-19.8c45.8-18.1,50.3-16.8,81,21.7l33.5,42.1l-19.8-50 C392.9,203,394.1,198.4,432.7,167.8z M384.8,219.3c-7.8-7.3-18-11.4-28.6-11.5c-3.5,0-7,0.4-10.4,1c9.8-10.4,13.7-25.1,10.5-39 c10.4,9.8,25.1,13.7,39,10.5C385.5,190.7,381.6,205.3,384.8,219.3z"></path> </g> </g> </svg> 